<svg xmlns="http://www.w3.org/2000/svg" width="1480" height="757" font-family="Arial, sans-serif"><rect width="1480" height="757" fill="#fff"/><text x="26" y="29" font-size="18" fill="#617481">Purple: signal copper · gold: ground vias · red: needs attention · green rings: qualified ground contact</text><g transform="translate(0,65)"><desc>**Needs attention: DQ0 runs over a floating reference island on inner1.**
Near (3, 0) mm.
Next: Connect this island to a same-net reference terminal with copper or a contacting via.

Reference-copper geometry only; impedance, timing and boot are not evaluated.

[{"id":"reference_island_unanchored_9f0389dbb3585da6","code":"reference_island_unanchored","location":{"pcbTraceId":"dq_route","sourceTraceId":"dq_source","sourceNetId":"dq","layers":["inner1","top"],"pcbCopperPourIds":["gnd1","island"],"segmentIndex":0,"start":{"x":1,"y":0},"end":{"x":5,"y":0}}},{"id":"reference_centerline_covered_9f0389dbb3585da6","code":"reference_centerline_covered","location":{"pcbTraceId":"dq_route","sourceTraceId":"dq_source","sourceNetId":"dq","layers":["inner1","top"],"pcbCopperPourIds":["gnd1","island"],"segmentIndex":0,"start":{"x":1,"y":0},"end":{"x":5,"y":0}}}]</desc><text x="26" y="44" fill="#172d3b" font-size="25">Before: disconnected GND island</text><text x="26" y="76" fill="#c92f45" font-size="18">ISSUE · DECLARED stackup</text><clipPath id="crop_0_inner1"><path d="M37,368.1 L541,292.5 L673,351.9 L169,427.5 Z"/></clipPath>
<path d="M37,368.1 L541,292.5 L673,351.9 L169,427.5 Z" fill="none" stroke="#c3cfda" stroke-width="1.5" stroke-dasharray="5 6"/>
<path d="M169,427.5 L421,389.7 L289,330.3 L37,368.1 Z" clip-path="url(#crop_0_inner1)" fill="#a8d7c2" fill-rule="evenodd" stroke="#3d856a" stroke-width="2" />
<path d="M442,386.54999999999995 L673,351.9 L541,292.5 L310,327.15 Z" clip-path="url(#crop_0_inner1)" fill="#f5c4c8" fill-rule="evenodd" stroke="#3d856a" stroke-width="2" />
<text x="558" y="379.9" fill="#276b52" font-size="20">inner1 · GND</text>
<clipPath id="crop_0_top"><path d="M37,203.10000000000002 L541,127.49999999999999 L673,186.89999999999998 L169,262.5 Z"/></clipPath>
<path d="M37,203.10000000000002 L541,127.49999999999999 L673,186.89999999999998 L169,262.5 Z" fill="none" stroke="#c3cfda" stroke-width="1.5" stroke-dasharray="5 6"/>
<text x="558" y="214.89999999999998" fill="#6549bb" font-size="20">top</text>
<g clip-path="url(#crop_0_top)"><circle transform="matrix(42 -6.3 22 9.9 145 226.5)" r="0.35" fill="#bba8e1"/></g>
<g clip-path="url(#crop_0_top)"><circle transform="matrix(42 -6.3 22 9.9 565 163.5)" r="0.35" fill="#bba8e1"/></g>
<g clip-path="url(#crop_0_top)"><circle transform="matrix(42 -6.3 22 9.9 123 216.6)" r="0.35" fill="#dba24b"/></g>
<g clip-path="url(#crop_0_top)"><circle transform="matrix(42 -6.3 22 9.9 543 153.6)" r="0.35" fill="#dba24b"/></g>
<g clip-path="url(#crop_0_top)"><path d="M397,188.7 L565,163.5" stroke="#7042bc" stroke-width="8" fill="none" stroke-linecap="round"/></g>
<path d="M123,216.6 L123,381.6" stroke="#c78932" stroke-width="16.38" stroke-opacity=".8"/>
<g transform="matrix(42 -6.3 22 9.9 123 216.6)"><circle r="0.3" fill="#c78932"/><circle r="0.125" fill="white"/></g>
<g transform="matrix(42 -6.3 22 9.9 123 381.6)"><circle r="0.3" fill="#c78932"/><circle r="0.125" fill="white"/></g><text x="26" y="500" fill="#263747" font-size="17">Needs attention: DQ0 runs over a floating reference island on inner1.</text>
<text x="26" y="522" fill="#263747" font-size="17">Near (3, 0) mm.</text>
<text x="26" y="544" fill="#263747" font-size="17">Next: Connect this island to a same-net reference terminal with copper or a </text>
<text x="26" y="566" fill="#263747" font-size="17">contacting via.</text></g>
<g transform="translate(740,65)"><desc>**Looks good.** DQ0 stays over reference copper on inner1.
Near (0, 0) mm.
Keep this reference coverage.

Reference-copper geometry only; impedance, timing and boot are not evaluated.

[{"id":"reference_centerline_covered_0b1a7039a3b8e76c","code":"reference_centerline_covered","location":{"pcbTraceId":"dq_route","sourceTraceId":"dq_source","sourceNetId":"dq","layers":["inner1","top"],"pcbCopperPourIds":["gnd1"],"segmentIndex":0,"start":{"x":-5,"y":0},"end":{"x":5,"y":0}}}]</desc><text x="26" y="44" fill="#172d3b" font-size="25">After: copper connects to ground</text><text x="26" y="76" fill="#16715c" font-size="18">CLEAR · DECLARED stackup</text><clipPath id="crop_1_inner1"><path d="M37,368.1 L541,292.5 L673,351.9 L169,427.5 Z"/></clipPath>
<path d="M37,368.1 L541,292.5 L673,351.9 L169,427.5 Z" fill="none" stroke="#c3cfda" stroke-width="1.5" stroke-dasharray="5 6"/>
<path d="M169,427.5 L673,351.9 L541,292.5 L37,368.1 Z" clip-path="url(#crop_1_inner1)" fill="#a8d7c2" fill-rule="evenodd" stroke="#3d856a" stroke-width="2" />
<text x="558" y="379.9" fill="#276b52" font-size="20">inner1 · GND</text>
<clipPath id="crop_1_top"><path d="M37,203.10000000000002 L541,127.49999999999999 L673,186.89999999999998 L169,262.5 Z"/></clipPath>
<path d="M37,203.10000000000002 L541,127.49999999999999 L673,186.89999999999998 L169,262.5 Z" fill="none" stroke="#c3cfda" stroke-width="1.5" stroke-dasharray="5 6"/>
<text x="558" y="214.89999999999998" fill="#6549bb" font-size="20">top</text>
<g clip-path="url(#crop_1_top)"><circle transform="matrix(42 -6.3 22 9.9 145 226.5)" r="0.35" fill="#bba8e1"/></g>
<g clip-path="url(#crop_1_top)"><circle transform="matrix(42 -6.3 22 9.9 565 163.5)" r="0.35" fill="#bba8e1"/></g>
<g clip-path="url(#crop_1_top)"><circle transform="matrix(42 -6.3 22 9.9 123 216.6)" r="0.35" fill="#dba24b"/></g>
<g clip-path="url(#crop_1_top)"><circle transform="matrix(42 -6.3 22 9.9 543 153.6)" r="0.35" fill="#dba24b"/></g>
<g clip-path="url(#crop_1_top)"><path d="M145,226.5 L565,163.5" stroke="#7042bc" stroke-width="8" fill="none" stroke-linecap="round"/></g>
<path d="M123,216.6 L123,381.6" stroke="#c78932" stroke-width="16.38" stroke-opacity=".8"/>
<g transform="matrix(42 -6.3 22 9.9 123 216.6)"><circle r="0.3" fill="#c78932"/><circle r="0.125" fill="white"/></g>
<g transform="matrix(42 -6.3 22 9.9 123 381.6)"><circle r="0.3" fill="#c78932"/><circle r="0.125" fill="white"/></g>
<path d="M543,153.6 L543,318.6" stroke="#c78932" stroke-width="16.38" stroke-opacity=".8"/>
<g transform="matrix(42 -6.3 22 9.9 543 153.6)"><circle r="0.3" fill="#c78932"/><circle r="0.125" fill="white"/></g>
<g transform="matrix(42 -6.3 22 9.9 543 318.6)"><circle r="0.3" fill="#c78932"/><circle r="0.125" fill="white"/></g><text x="26" y="500" fill="#263747" font-size="17">Looks good. DQ0 stays over reference copper on inner1.</text>
<text x="26" y="522" fill="#263747" font-size="17">Near (0, 0) mm.</text>
<text x="26" y="544" fill="#263747" font-size="17">Keep this reference coverage.</text></g>
<text x="26" y="707" fill="#617481" font-size="16">Reference-copper geometry only; impedance, timing and boot are not evaluated.</text><text x="26" y="731" fill="#617481" font-size="16">Geometry illustration · layers separated for clarity · broad GND copper is the return reference · no electromagnetic simulation</text></svg>