<svg width="800" height="660" viewBox="0 0 800 660" xmlns="http://www.w3.org/2000/svg">
  <g transform="translate(0, 0)">
    <rect width="800" height="60" fill="#101827" />
      <text x="24" y="38" fill="#3b82f6" font-family="sans-serif" font-size="22">Detected orientation issue: rotate Y1 180 degrees</text>
  </g>
  <g transform="translate(0, 60)">
    <style></style><rect class="boundary" x="0" y="0" fill="#000" width="800" height="600" data-type="pcb_background" data-pcb-layer="global"/><rect class="pcb-boundary" fill="none" stroke="#fff" stroke-width="0.3" x="21.05263157894734" y="152.6315789473684" width="757.8947368421054" height="294.7368421052631" data-type="pcb_boundary" data-pcb-layer="global"/><path class="pcb-board" d="M 21.05263157894734 447.36842105263156 L 778.9473684210527 447.36842105263156 L 778.9473684210527 152.6315789473684 L 21.05263157894734 152.6315789473684 Z" fill="none" stroke="rgba(255, 255, 255, 0.5)" stroke-width="2.105263157894737" data-type="pcb_board" data-pcb-layer="board"/><circle class="pcb-pad" fill="rgb(200, 52, 52)" cx="631.578947368421" cy="257.89473684210526" r="12.631578947368421" data-type="pcb_smtpad" data-pcb-layer="top" data-pad-name="TP_RIGHT.pin1" data-pad-net-name="A"/><circle class="pcb-pad" fill="rgb(200, 52, 52)" cx="715.7894736842105" cy="257.89473684210526" r="12.631578947368421" data-type="pcb_smtpad" data-pcb-layer="top" data-pad-name="TP_RIGHT_ALT.pin1" data-pad-net-name="A"/><circle class="pcb-pad" fill="rgb(200, 52, 52)" cx="168.42105263157893" cy="342.10526315789474" r="12.631578947368421" data-type="pcb_smtpad" data-pcb-layer="top" data-pad-name="TP_LEFT.pin1" data-pad-net-name="B"/><circle class="pcb-pad" fill="rgb(200, 52, 52)" cx="84.21052631578948" cy="342.10526315789474" r="12.631578947368421" data-type="pcb_smtpad" data-pcb-layer="top" data-pad-name="TP_LEFT_ALT.pin1" data-pad-net-name="B"/><path class="pcb-silkscreen pcb-silkscreen-top" d="M 341.0526315789474 336.8421052631579 L 336.24377186557706 336.52691594535094 L 331.51719307517027 335.58674096854463 L 326.95376828128616 334.0376669872579 L 322.63157894736844 331.90619908679514 L 318.62457893125764 329.22880727388764 L 315.00132911417984 326.05130246476756 L 311.82382430505976 322.4280526476897 L 309.14643249215226 318.42105263157896 L 307.0149645916894 314.0988632976612 L 305.46589061040277 309.5354385037771 L 304.52571563359646 304.80885971337034 L 304.2105263157895 300 L 304.52571563359646 295.19114028662966 L 305.46589061040277 290.4645614962229 L 307.0149645916894 285.9011367023388 L 309.14643249215226 281.57894736842104 L 311.82382430505976 277.5719473523103 L 315.00132911417984 273.94869753523244 L 318.62457893125764 270.7711927261124 L 322.63157894736844 268.09380091320486 L 326.95376828128616 265.9623330127421 L 331.51719307517027 264.41325903145537 L 336.24377186557706 263.47308405464906 L 341.0526315789474 263.1578947368421 L 341.0526315789474 263.1578947368421 L 336.24377186557706 263.47308405464906 L 331.51719307517027 264.41325903145537 L 326.95376828128616 265.9623330127421 L 322.63157894736844 268.09380091320486 L 318.62457893125764 270.7711927261124 L 315.00132911417984 273.94869753523244 L 311.82382430505976 277.5719473523103 L 309.14643249215226 281.57894736842104 L 307.0149645916894 285.9011367023388 L 305.46589061040277 290.4645614962229 L 304.52571563359646 295.19114028662966 L 304.2105263157895 300 L 304.52571563359646 304.80885971337034 L 305.46589061040277 309.5354385037771 L 307.0149645916894 314.0988632976612 L 309.14643249215226 318.42105263157896 L 311.82382430505976 322.4280526476897 L 315.00132911417984 326.05130246476756 L 318.62457893125764 329.22880727388764 L 322.63157894736844 331.90619908679514 L 326.95376828128616 334.0376669872579 L 331.51719307517027 335.58674096854463 L 336.24377186557706 336.52691594535094 L 341.0526315789474 336.8421052631579 L 458.9473684210526 336.8421052631579 L 458.9473684210526 336.8421052631579 L 463.75622813442294 336.52691594535094 L 468.48280692482973 335.58674096854463 L 473.04623171871384 334.0376669872579 L 477.36842105263156 331.90619908679514 L 481.37542106874236 329.22880727388764 L 484.99867088582016 326.05130246476756 L 488.17617569494024 322.4280526476897 L 490.85356750784774 318.42105263157896 L 492.9850354083106 314.0988632976612 L 494.53410938959723 309.5354385037771 L 495.47428436640354 304.80885971337034 L 495.7894736842105 300 L 495.47428436640354 295.19114028662966 L 494.53410938959723 290.4645614962229 L 492.9850354083106 285.9011367023388 L 490.85356750784774 281.57894736842104 L 488.17617569494024 277.5719473523103 L 484.99867088582016 273.94869753523244 L 481.37542106874236 270.7711927261124 L 477.36842105263156 268.09380091320486 L 473.04623171871384 265.9623330127421 L 468.48280692482973 264.41325903145537 L 463.75622813442294 263.47308405464906 L 458.9473684210526 263.1578947368421 L 458.9473684210526 263.1578947368421 L 341.0526315789474 263.1578947368421" fill="none" stroke="#f2eda1" stroke-width="2.105263157894737" stroke-linecap="round" stroke-linejoin="round" data-pcb-component-id="pcb_component_0__stack1" data-pcb-silkscreen-path-id="pcb_silkscreen_path_0__stack1" data-type="pcb_silkscreen_path" data-pcb-layer="top"/><text x="0" y="0" dx="0" dy="0" fill="#f2eda1" font-family="Arial, sans-serif" font-size="14.736842105263158" text-anchor="middle" dominant-baseline="central" transform="matrix(1,0,0,1,400,274.3157894736842)" class="pcb-silkscreen-text pcb-silkscreen-top" data-pcb-silkscreen-text-id="pcb_silkscreen_text_0__stack1" stroke="none" data-type="pcb_silkscreen_text" data-pcb-layer="top">Y1</text><text x="0" y="0" dx="0" dy="0" fill="#f2eda1" font-family="Arial, sans-serif" font-size="8.421052631578949" text-anchor="middle" dominant-baseline="central" transform="matrix(1,0,0,1,631.578947368421,234.73684210526315)" class="pcb-silkscreen-text pcb-silkscreen-top" data-pcb-silkscreen-text-id="pcb_silkscreen_text_1__stack1" stroke="none" data-type="pcb_silkscreen_text" data-pcb-layer="top">TP_RIGHT</text><text x="0" y="0" dx="0" dy="0" fill="#f2eda1" font-family="Arial, sans-serif" font-size="8.421052631578949" text-anchor="middle" dominant-baseline="central" transform="matrix(1,0,0,1,715.7894736842105,234.73684210526315)" class="pcb-silkscreen-text pcb-silkscreen-top" data-pcb-silkscreen-text-id="pcb_silkscreen_text_2__stack1" stroke="none" data-type="pcb_silkscreen_text" data-pcb-layer="top">TP_RIGHT_ALT</text><text x="0" y="0" dx="0" dy="0" fill="#f2eda1" font-family="Arial, sans-serif" font-size="8.421052631578949" text-anchor="middle" dominant-baseline="central" transform="matrix(1,0,0,1,168.42105263157893,318.9473684210526)" class="pcb-silkscreen-text pcb-silkscreen-top" data-pcb-silkscreen-text-id="pcb_silkscreen_text_3__stack1" stroke="none" data-type="pcb_silkscreen_text" data-pcb-layer="top">TP_LEFT</text><text x="0" y="0" dx="0" dy="0" fill="#f2eda1" font-family="Arial, sans-serif" font-size="8.421052631578949" text-anchor="middle" dominant-baseline="central" transform="matrix(1,0,0,1,84.21052631578948,318.9473684210526)" class="pcb-silkscreen-text pcb-silkscreen-top" data-pcb-silkscreen-text-id="pcb_silkscreen_text_4__stack1" stroke="none" data-type="pcb_silkscreen_text" data-pcb-layer="top">TP_LEFT_ALT</text><g data-type="pcb_plated_hole" data-pcb-layer="through" data-pad-name="Y1.pin1" data-pad-net-name="A"><circle class="pcb-hole-outer" fill="rgb(200, 52, 52)" cx="348.63157894736844" cy="300" r="15.789473684210527" data-type="pcb_plated_hole" data-pcb-layer="top"/><circle class="pcb-hole-inner" fill="#FF26E2" cx="348.63157894736844" cy="300" r="8.421052631578949" data-type="pcb_plated_hole_drill" data-pcb-layer="drill"/></g><g data-type="pcb_plated_hole" data-pcb-layer="through" data-pad-name="Y1.pin2" data-pad-net-name="B"><circle class="pcb-hole-outer" fill="rgb(200, 52, 52)" cx="451.36842105263156" cy="300" r="15.789473684210527" data-type="pcb_plated_hole" data-pcb-layer="top"/><circle class="pcb-hole-inner" fill="#FF26E2" cx="451.36842105263156" cy="300" r="8.421052631578949" data-type="pcb_plated_hole_drill" data-pcb-layer="drill"/></g><line x1="348.63157894736844" y1="300" x2="631.578947368421" y2="257.89473684210526" stroke="white" stroke-width="1" stroke-dasharray="6,6" data-type="pcb_rats_nest" data-pcb-layer="overlay"/><line x1="451.36842105263156" y1="300" x2="168.42105263157893" y2="342.10526315789474" stroke="white" stroke-width="1" stroke-dasharray="6,6" data-type="pcb_rats_nest" data-pcb-layer="overlay"/><line x1="631.578947368421" y1="257.89473684210526" x2="715.7894736842105" y2="257.89473684210526" stroke="white" stroke-width="1" stroke-dasharray="6,6" data-type="pcb_rats_nest" data-pcb-layer="overlay"/><line x1="715.7894736842105" y1="257.89473684210526" x2="631.578947368421" y2="257.89473684210526" stroke="white" stroke-width="1" stroke-dasharray="6,6" data-type="pcb_rats_nest" data-pcb-layer="overlay"/><line x1="168.42105263157893" y1="342.10526315789474" x2="84.21052631578948" y2="342.10526315789474" stroke="white" stroke-width="1" stroke-dasharray="6,6" data-type="pcb_rats_nest" data-pcb-layer="overlay"/><line x1="84.21052631578948" y1="342.10526315789474" x2="168.42105263157893" y2="342.10526315789474" stroke="white" stroke-width="1" stroke-dasharray="6,6" data-type="pcb_rats_nest" data-pcb-layer="overlay"/>
  </g>
</svg>